STARTFONT 2.1
FONT -nil-ariafont-Medium-R-Normal--16-120-96-96-M-100-iso8859-1
SIZE 12 96 96
FONTBOUNDINGBOX 7 13 0 -3
STARTPROPERTIES 17
POINT_SIZE 120
PIXEL_SIZE 16
RESOLUTION_X 96
RESOLUTION_Y 96
FONT_ASCENT 11
FONT_DESCENT 3
AVERAGE_WIDTH 100
SPACING "M"
_GBDFED_INFO "Edited with gbdfed 1.6."
FOUNDRY "nil"
FAMILY_NAME "ariafont"
WEIGHT_NAME "Medium"
SLANT "R"
SETWIDTH_NAME "Normal"
ADD_STYLE_NAME ""
CHARSET_REGISTRY "iso8859"
CHARSET_ENCODING "1"
ENDPROPERTIES
CHARS 96
STARTCHAR <control>
ENCODING 0
SWIDTH 437 0
DWIDTH 7 0
BBX 0 0 0 0
BITMAP
ENDCHAR
STARTCHAR SPACE
ENCODING 32
SWIDTH 437 0
DWIDTH 7 0
BBX 0 0 0 0
BITMAP
ENDCHAR
STARTCHAR EXCLAMATION MARK
ENCODING 33
SWIDTH 437 0
DWIDTH 7 0
BBX 1 9 3 0
BITMAP
80
80
80
80
80
80
00
80
80
ENDCHAR
STARTCHAR QUOTATION MARK
ENCODING 34
SWIDTH 437 0
DWIDTH 7 0
BBX 5 3 1 6
BITMAP
88
88
88
ENDCHAR
STARTCHAR NUMBER SIGN
ENCODING 35
SWIDTH 437 0
DWIDTH 7 0
BBX 5 6 1 1
BITMAP
50
F8
50
50
F8
50
ENDCHAR
STARTCHAR DOLLAR SIGN
ENCODING 36
SWIDTH 437 0
DWIDTH 7 0
BBX 5 9 1 0
BITMAP
20
70
A8
A0
70
28
A8
70
20
ENDCHAR
STARTCHAR PERCENT SIGN
ENCODING 37
SWIDTH 437 0
DWIDTH 7 0
BBX 5 9 1 0
BITMAP
48
A8
50
10
20
40
50
A8
90
ENDCHAR
STARTCHAR AMPERSAND
ENCODING 38
SWIDTH 437 0
DWIDTH 7 0
BBX 5 9 1 0
BITMAP
60
90
90
60
40
68
90
90
68
ENDCHAR
STARTCHAR APOSTROPHE
ENCODING 39
SWIDTH 437 0
DWIDTH 7 0
BBX 1 3 3 6
BITMAP
80
80
80
ENDCHAR
STARTCHAR LEFT PARENTHESIS
ENCODING 40
SWIDTH 437 0
DWIDTH 7 0
BBX 4 11 1 -1
BITMAP
10
20
40
40
80
80
80
40
40
20
10
ENDCHAR
STARTCHAR RIGHT PARENTHESIS
ENCODING 41
SWIDTH 437 0
DWIDTH 7 0
BBX 4 11 2 -1
BITMAP
80
40
20
20
10
10
10
20
20
40
80
ENDCHAR
STARTCHAR ASTERISK
ENCODING 42
SWIDTH 437 0
DWIDTH 7 0
BBX 5 5 1 2
BITMAP
20
A8
70
A8
20
ENDCHAR
STARTCHAR PLUS SIGN
ENCODING 43
SWIDTH 437 0
DWIDTH 7 0
BBX 5 5 1 2
BITMAP
20
20
F8
20
20
ENDCHAR
STARTCHAR COMMA
ENCODING 44
SWIDTH 437 0
DWIDTH 7 0
BBX 2 4 2 -2
BITMAP
C0
C0
40
80
ENDCHAR
STARTCHAR HYPHEN-MINUS
ENCODING 45
SWIDTH 437 0
DWIDTH 7 0
BBX 5 1 1 4
BITMAP
F8
ENDCHAR
STARTCHAR FULL STOP
ENCODING 46
SWIDTH 437 0
DWIDTH 7 0
BBX 2 2 2 0
BITMAP
C0
C0
ENDCHAR
STARTCHAR SOLIDUS
ENCODING 47
SWIDTH 437 0
DWIDTH 7 0
BBX 5 9 1 0
BITMAP
08
08
10
10
20
40
40
80
80
ENDCHAR
STARTCHAR DIGIT ZERO
ENCODING 48
SWIDTH 437 0
DWIDTH 7 0
BBX 5 9 1 0
BITMAP
70
88
88
98
A8
C8
88
88
70
ENDCHAR
STARTCHAR DIGIT ONE
ENCODING 49
SWIDTH 437 0
DWIDTH 7 0
BBX 5 9 1 0
BITMAP
20
60
A0
20
20
20
20
20
F8
ENDCHAR
STARTCHAR DIGIT TWO
ENCODING 50
SWIDTH 437 0
DWIDTH 7 0
BBX 5 9 1 0
BITMAP
70
88
88
08
30
40
80
80
F8
ENDCHAR
STARTCHAR DIGIT THREE
ENCODING 51
SWIDTH 437 0
DWIDTH 7 0
BBX 5 9 1 0
BITMAP
70
88
88
08
30
08
88
88
70
ENDCHAR
STARTCHAR DIGIT FOUR
ENCODING 52
SWIDTH 437 0
DWIDTH 7 0
BBX 5 9 1 0
BITMAP
10
30
50
90
F8
10
10
10
10
ENDCHAR
STARTCHAR DIGIT FIVE
ENCODING 53
SWIDTH 437 0
DWIDTH 7 0
BBX 5 9 1 0
BITMAP
F8
80
80
F0
08
08
08
88
70
ENDCHAR
STARTCHAR DIGIT SIX
ENCODING 54
SWIDTH 437 0
DWIDTH 7 0
BBX 5 9 1 0
BITMAP
70
88
80
F0
88
88
88
88
70
ENDCHAR
STARTCHAR DIGIT SEVEN
ENCODING 55
SWIDTH 437 0
DWIDTH 7 0
BBX 5 9 1 0
BITMAP
F8
08
08
10
10
10
20
20
20
ENDCHAR
STARTCHAR DIGIT EIGHT
ENCODING 56
SWIDTH 437 0
DWIDTH 7 0
BBX 5 9 1 0
BITMAP
70
88
88
88
70
88
88
88
70
ENDCHAR
STARTCHAR DIGIT NINE
ENCODING 57
SWIDTH 437 0
DWIDTH 7 0
BBX 5 9 1 0
BITMAP
70
88
88
88
78
08
08
88
70
ENDCHAR
STARTCHAR COLON
ENCODING 58
SWIDTH 437 0
DWIDTH 7 0
BBX 2 5 2 0
BITMAP
C0
C0
00
C0
C0
ENDCHAR
STARTCHAR SEMICOLON
ENCODING 59
SWIDTH 437 0
DWIDTH 7 0
BBX 2 7 2 -2
BITMAP
C0
C0
00
C0
C0
40
80
ENDCHAR
STARTCHAR LESS-THAN SIGN
ENCODING 60
SWIDTH 437 0
DWIDTH 7 0
BBX 5 9 1 0
BITMAP
08
10
20
40
80
40
20
10
08
ENDCHAR
STARTCHAR EQUALS SIGN
ENCODING 61
SWIDTH 437 0
DWIDTH 7 0
BBX 5 5 1 2
BITMAP
F8
00
00
00
F8
ENDCHAR
STARTCHAR GREATER-THAN SIGN
ENCODING 62
SWIDTH 437 0
DWIDTH 7 0
BBX 5 9 1 0
BITMAP
80
40
20
10
08
10
20
40
80
ENDCHAR
STARTCHAR QUESTION MARK
ENCODING 63
SWIDTH 437 0
DWIDTH 7 0
BBX 5 9 1 0
BITMAP
70
88
88
08
30
20
00
20
20
ENDCHAR
STARTCHAR COMMERCIAL AT
ENCODING 64
SWIDTH 437 0
DWIDTH 7 0
BBX 5 9 1 0
BITMAP
70
88
88
B8
A8
B8
80
80
78
ENDCHAR
STARTCHAR LATIN CAPITAL LETTER A
ENCODING 65
SWIDTH 437 0
DWIDTH 7 0
BBX 5 9 1 0
BITMAP
70
88
88
88
F8
88
88
88
88
ENDCHAR
STARTCHAR LATIN CAPITAL LETTER B
ENCODING 66
SWIDTH 437 0
DWIDTH 7 0
BBX 5 9 1 0
BITMAP
F0
88
88
88
F0
88
88
88
F0
ENDCHAR
STARTCHAR LATIN CAPITAL LETTER C
ENCODING 67
SWIDTH 437 0
DWIDTH 7 0
BBX 5 9 1 0
BITMAP
70
88
88
80
80
80
88
88
70
ENDCHAR
STARTCHAR LATIN CAPITAL LETTER D
ENCODING 68
SWIDTH 437 0
DWIDTH 7 0
BBX 5 9 1 0
BITMAP
E0
90
88
88
88
88
88
90
E0
ENDCHAR
STARTCHAR LATIN CAPITAL LETTER E
ENCODING 69
SWIDTH 437 0
DWIDTH 7 0
BBX 5 9 1 0
BITMAP
F8
80
80
80
F8
80
80
80
F8
ENDCHAR
STARTCHAR LATIN CAPITAL LETTER F
ENCODING 70
SWIDTH 437 0
DWIDTH 7 0
BBX 5 9 1 0
BITMAP
F8
80
80
80
F8
80
80
80
80
ENDCHAR
STARTCHAR LATIN CAPITAL LETTER G
ENCODING 71
SWIDTH 437 0
DWIDTH 7 0
BBX 5 9 1 0
BITMAP
70
88
80
80
B8
88
88
98
68
ENDCHAR
STARTCHAR LATIN CAPITAL LETTER H
ENCODING 72
SWIDTH 437 0
DWIDTH 7 0
BBX 5 9 1 0
BITMAP
88
88
88
88
F8
88
88
88
88
ENDCHAR
STARTCHAR LATIN CAPITAL LETTER I
ENCODING 73
SWIDTH 437 0
DWIDTH 7 0
BBX 5 9 1 0
BITMAP
F8
20
20
20
20
20
20
20
F8
ENDCHAR
STARTCHAR LATIN CAPITAL LETTER J
ENCODING 74
SWIDTH 437 0
DWIDTH 7 0
BBX 5 9 1 0
BITMAP
08
08
08
08
08
08
88
88
70
ENDCHAR
STARTCHAR LATIN CAPITAL LETTER K
ENCODING 75
SWIDTH 437 0
DWIDTH 7 0
BBX 5 9 1 0
BITMAP
88
90
A0
C0
80
C0
A0
90
88
ENDCHAR
STARTCHAR LATIN CAPITAL LETTER L
ENCODING 76
SWIDTH 437 0
DWIDTH 7 0
BBX 5 9 1 0
BITMAP
80
80
80
80
80
80
80
80
F8
ENDCHAR
STARTCHAR LATIN CAPITAL LETTER M
ENCODING 77
SWIDTH 437 0
DWIDTH 7 0
BBX 5 9 1 0
BITMAP
88
D8
D8
A8
A8
88
88
88
88
ENDCHAR
STARTCHAR LATIN CAPITAL LETTER N
ENCODING 78
SWIDTH 437 0
DWIDTH 7 0
BBX 5 9 1 0
BITMAP
88
C8
C8
A8
A8
98
98
88
88
ENDCHAR
STARTCHAR LATIN CAPITAL LETTER O
ENCODING 79
SWIDTH 437 0
DWIDTH 7 0
BBX 5 9 1 0
BITMAP
70
88
88
88
88
88
88
88
70
ENDCHAR
STARTCHAR LATIN CAPITAL LETTER P
ENCODING 80
SWIDTH 437 0
DWIDTH 7 0
BBX 5 9 1 0
BITMAP
F0
88
88
88
F0
80
80
80
80
ENDCHAR
STARTCHAR LATIN CAPITAL LETTER Q
ENCODING 81
SWIDTH 437 0
DWIDTH 7 0
BBX 5 10 1 -1
BITMAP
70
88
88
88
88
A8
A8
90
68
08
ENDCHAR
STARTCHAR LATIN CAPITAL LETTER R
ENCODING 82
SWIDTH 437 0
DWIDTH 7 0
BBX 5 9 1 0
BITMAP
F0
88
88
88
F8
90
90
88
88
ENDCHAR
STARTCHAR LATIN CAPITAL LETTER S
ENCODING 83
SWIDTH 437 0
DWIDTH 7 0
BBX 5 9 1 0
BITMAP
70
88
80
80
70
08
08
88
70
ENDCHAR
STARTCHAR LATIN CAPITAL LETTER T
ENCODING 84
SWIDTH 437 0
DWIDTH 7 0
BBX 5 9 1 0
BITMAP
F8
20
20
20
20
20
20
20
20
ENDCHAR
STARTCHAR LATIN CAPITAL LETTER U
ENCODING 85
SWIDTH 437 0
DWIDTH 7 0
BBX 5 9 1 0
BITMAP
88
88
88
88
88
88
88
88
70
ENDCHAR
STARTCHAR LATIN CAPITAL LETTER V
ENCODING 86
SWIDTH 437 0
DWIDTH 7 0
BBX 5 9 1 0
BITMAP
88
88
88
50
50
50
20
20
20
ENDCHAR
STARTCHAR LATIN CAPITAL LETTER W
ENCODING 87
SWIDTH 437 0
DWIDTH 7 0
BBX 5 9 1 0
BITMAP
88
88
88
A8
A8
A8
50
50
50
ENDCHAR
STARTCHAR LATIN CAPITAL LETTER X
ENCODING 88
SWIDTH 437 0
DWIDTH 7 0
BBX 5 9 1 0
BITMAP
88
88
88
50
20
50
88
88
88
ENDCHAR
STARTCHAR LATIN CAPITAL LETTER Y
ENCODING 89
SWIDTH 437 0
DWIDTH 7 0
BBX 5 9 1 0
BITMAP
88
88
88
50
50
20
20
20
20
ENDCHAR
STARTCHAR LATIN CAPITAL LETTER Z
ENCODING 90
SWIDTH 437 0
DWIDTH 7 0
BBX 5 9 1 0
BITMAP
F8
08
08
10
20
40
80
80
F8
ENDCHAR
STARTCHAR LEFT SQUARE BRACKET
ENCODING 91
SWIDTH 437 0
DWIDTH 7 0
BBX 3 11 2 -1
BITMAP
E0
80
80
80
80
80
80
80
80
80
E0
ENDCHAR
STARTCHAR REVERSE SOLIDUS
ENCODING 92
SWIDTH 437 0
DWIDTH 7 0
BBX 5 9 1 0
BITMAP
80
80
40
40
20
10
10
08
08
ENDCHAR
STARTCHAR RIGHT SQUARE BRACKET
ENCODING 93
SWIDTH 437 0
DWIDTH 7 0
BBX 3 11 2 -1
BITMAP
E0
20
20
20
20
20
20
20
20
20
E0
ENDCHAR
STARTCHAR CIRCUMFLEX ACCENT
ENCODING 94
SWIDTH 437 0
DWIDTH 7 0
BBX 5 3 1 6
BITMAP
20
50
88
ENDCHAR
STARTCHAR LOW LINE
ENCODING 95
SWIDTH 437 0
DWIDTH 7 0
BBX 5 1 1 -1
BITMAP
F8
ENDCHAR
STARTCHAR GRAVE ACCENT
ENCODING 96
SWIDTH 437 0
DWIDTH 7 0
BBX 3 3 1 6
BITMAP
80
40
20
ENDCHAR
STARTCHAR LATIN SMALL LETTER A
ENCODING 97
SWIDTH 437 0
DWIDTH 7 0
BBX 5 6 1 0
BITMAP
78
88
88
88
98
68
ENDCHAR
STARTCHAR LATIN SMALL LETTER B
ENCODING 98
SWIDTH 437 0
DWIDTH 7 0
BBX 5 9 1 0
BITMAP
80
80
80
F0
88
88
88
88
F0
ENDCHAR
STARTCHAR LATIN SMALL LETTER C
ENCODING 99
SWIDTH 437 0
DWIDTH 7 0
BBX 5 6 1 0
BITMAP
70
88
80
80
88
70
ENDCHAR
STARTCHAR LATIN SMALL LETTER D
ENCODING 100
SWIDTH 437 0
DWIDTH 7 0
BBX 5 9 1 0
BITMAP
08
08
08
78
88
88
88
88
78
ENDCHAR
STARTCHAR LATIN SMALL LETTER E
ENCODING 101
SWIDTH 437 0
DWIDTH 7 0
BBX 5 6 1 0
BITMAP
70
88
F8
80
88
70
ENDCHAR
STARTCHAR LATIN SMALL LETTER F
ENCODING 102
SWIDTH 437 0
DWIDTH 7 0
BBX 5 9 1 0
BITMAP
18
20
20
20
F8
20
20
20
20
ENDCHAR
STARTCHAR LATIN SMALL LETTER G
ENCODING 103
SWIDTH 437 0
DWIDTH 7 0
BBX 5 9 1 -3
BITMAP
78
88
88
88
88
78
08
08
70
ENDCHAR
STARTCHAR LATIN SMALL LETTER H
ENCODING 104
SWIDTH 437 0
DWIDTH 7 0
BBX 5 9 1 0
BITMAP
80
80
80
B0
C8
88
88
88
88
ENDCHAR
STARTCHAR LATIN SMALL LETTER I
ENCODING 105
SWIDTH 437 0
DWIDTH 7 0
BBX 5 9 1 0
BITMAP
20
20
00
E0
20
20
20
20
F8
ENDCHAR
STARTCHAR LATIN SMALL LETTER J
ENCODING 106
SWIDTH 437 0
DWIDTH 7 0
BBX 4 11 1 -2
BITMAP
10
10
00
70
10
10
10
10
10
90
60
ENDCHAR
STARTCHAR LATIN SMALL LETTER K
ENCODING 107
SWIDTH 437 0
DWIDTH 7 0
BBX 5 9 1 0
BITMAP
80
80
88
90
A0
C0
A0
90
88
ENDCHAR
STARTCHAR LATIN SMALL LETTER L
ENCODING 108
SWIDTH 437 0
DWIDTH 7 0
BBX 5 9 1 0
BITMAP
E0
20
20
20
20
20
20
20
F8
ENDCHAR
STARTCHAR LATIN SMALL LETTER M
ENCODING 109
SWIDTH 437 0
DWIDTH 7 0
BBX 5 6 1 0
BITMAP
F0
A8
A8
A8
A8
A8
ENDCHAR
STARTCHAR LATIN SMALL LETTER N
ENCODING 110
SWIDTH 437 0
DWIDTH 7 0
BBX 5 6 1 0
BITMAP
B0
C8
88
88
88
88
ENDCHAR
STARTCHAR LATIN SMALL LETTER O
ENCODING 111
SWIDTH 437 0
DWIDTH 7 0
BBX 5 6 1 0
BITMAP
70
88
88
88
88
70
ENDCHAR
STARTCHAR LATIN SMALL LETTER P
ENCODING 112
SWIDTH 437 0
DWIDTH 7 0
BBX 5 9 1 -3
BITMAP
F0
88
88
88
88
F0
80
80
80
ENDCHAR
STARTCHAR LATIN SMALL LETTER Q
ENCODING 113
SWIDTH 437 0
DWIDTH 7 0
BBX 5 9 1 -3
BITMAP
78
88
88
88
88
78
08
08
08
ENDCHAR
STARTCHAR LATIN SMALL LETTER R
ENCODING 114
SWIDTH 437 0
DWIDTH 7 0
BBX 5 6 1 0
BITMAP
B0
C8
88
80
80
80
ENDCHAR
STARTCHAR LATIN SMALL LETTER S
ENCODING 115
SWIDTH 437 0
DWIDTH 7 0
BBX 5 6 1 0
BITMAP
70
88
70
08
88
70
ENDCHAR
STARTCHAR LATIN SMALL LETTER T
ENCODING 116
SWIDTH 437 0
DWIDTH 7 0
BBX 5 9 1 0
BITMAP
20
20
20
F8
20
20
20
20
18
ENDCHAR
STARTCHAR LATIN SMALL LETTER U
ENCODING 117
SWIDTH 437 0
DWIDTH 7 0
BBX 5 6 1 0
BITMAP
88
88
88
88
98
68
ENDCHAR
STARTCHAR LATIN SMALL LETTER V
ENCODING 118
SWIDTH 437 0
DWIDTH 7 0
BBX 5 6 1 0
BITMAP
88
88
50
50
20
20
ENDCHAR
STARTCHAR LATIN SMALL LETTER W
ENCODING 119
SWIDTH 437 0
DWIDTH 7 0
BBX 5 6 1 0
BITMAP
88
A8
A8
A8
F8
50
ENDCHAR
STARTCHAR LATIN SMALL LETTER X
ENCODING 120
SWIDTH 437 0
DWIDTH 7 0
BBX 5 6 1 0
BITMAP
88
50
20
20
50
88
ENDCHAR
STARTCHAR LATIN SMALL LETTER Y
ENCODING 121
SWIDTH 437 0
DWIDTH 7 0
BBX 5 9 1 -3
BITMAP
88
88
88
88
88
78
08
08
70
ENDCHAR
STARTCHAR LATIN SMALL LETTER Z
ENCODING 122
SWIDTH 437 0
DWIDTH 7 0
BBX 5 6 1 0
BITMAP
F8
08
10
20
40
F8
ENDCHAR
STARTCHAR LEFT CURLY BRACKET
ENCODING 123
SWIDTH 437 0
DWIDTH 7 0
BBX 5 11 1 -1
BITMAP
18
20
20
20
10
E0
10
20
20
20
18
ENDCHAR
STARTCHAR VERTICAL LINE
ENCODING 124
SWIDTH 437 0
DWIDTH 7 0
BBX 1 10 3 -1
BITMAP
80
80
80
80
80
80
80
80
80
80
ENDCHAR
STARTCHAR RIGHT CURLY BRACKET
ENCODING 125
SWIDTH 437 0
DWIDTH 7 0
BBX 5 11 1 -1
BITMAP
C0
20
20
20
40
38
40
20
20
20
C0
ENDCHAR
STARTCHAR TILDE
ENCODING 126
SWIDTH 437 0
DWIDTH 7 0
BBX 5 3 1 2
BITMAP
40
A8
10
ENDCHAR
ENDFONT
